<svg width="120" height="32" viewBox="0 0 120 32" fill="none" xmlns="http://www.w3.org/2000/svg">
<path d="M2 23.72V1.64C2.81067 1.40533 3.64267 1.24533 4.496 1.16C5.37067 1.05333 6.40533 1 7.6 1C9.37067 1 10.8 1.26667 11.888 1.8C12.9973 2.33333 13.808 3.18667 14.32 4.36C14.8533 5.53333 15.12 7.08 15.12 9C15.12 11.0267 14.8747 12.648 14.384 13.864C13.8933 15.08 13.1573 15.9653 12.176 16.52C11.216 17.0533 10.0107 17.32 8.56 17.32C8.32533 17.32 7.90933 17.288 7.312 17.224C6.736 17.16 6.24533 17.0853 5.84 17V23.72H2ZM5.84 14.76H7.6C8.41067 14.76 9.08267 14.5893 9.616 14.248C10.1707 13.9067 10.5867 13.32 10.864 12.488C11.1413 11.656 11.28 10.4933 11.28 9C11.28 7.54933 11.1413 6.41867 10.864 5.608C10.5867 4.79733 10.1707 4.232 9.616 3.912C9.08267 3.57067 8.41067 3.4 7.6 3.4H5.84V14.76Z" fill="#5A5A5A"/>
<path d="M15.7488 23.72V7.72H18.4688L18.9488 9H19.1088C19.4501 8.68 19.9088 8.392 20.4848 8.136C21.0608 7.85867 21.8288 7.72 22.7888 7.72H24.8688V10.44H21.3488C20.9434 10.44 20.5914 10.504 20.2928 10.632C19.9941 10.76 19.7594 10.9093 19.5888 11.08V23.72H15.7488Z" fill="#5A5A5A"/>
<path d="M30.0075 24.04C28.6208 24.04 27.4475 23.7733 26.4875 23.24C25.5488 22.6853 24.8342 21.8 24.3435 20.584C23.8528 19.368 23.6075 17.7467 23.6075 15.72C23.6075 13.6933 23.8528 12.072 24.3435 10.856C24.8342 9.64 25.5488 8.76533 26.4875 8.232C27.4475 7.67733 28.6208 7.4 30.0075 7.4C31.3942 7.4 32.5568 7.67733 33.4955 8.232C34.4555 8.76533 35.1808 9.64 35.6715 10.856C36.1622 12.072 36.4075 13.6933 36.4075 15.72C36.4075 17.7467 36.1622 19.368 35.6715 20.584C35.1808 21.8 34.4555 22.6853 33.4955 23.24C32.5568 23.7733 31.3942 24.04 30.0075 24.04ZM30.0075 21.96C30.4982 21.96 30.9355 21.7893 31.3195 21.448C31.7035 21.0853 32.0022 20.456 32.2155 19.56C32.4502 18.6427 32.5675 17.3627 32.5675 15.72C32.5675 14.056 32.4502 12.776 32.2155 11.88C32.0022 10.984 31.7035 10.3653 31.3195 10.024C30.9355 9.66133 30.4982 9.48 30.0075 9.48C29.5382 9.48 29.1008 9.66133 28.6955 10.024C28.3115 10.3653 28.0022 10.984 27.7675 11.88C27.5542 12.776 27.4475 14.056 27.4475 15.72C27.4475 17.3627 27.5542 18.6427 27.7675 19.56C28.0022 20.456 28.3115 21.0853 28.6955 21.448C29.1008 21.7893 29.5382 21.96 30.0075 21.96Z" fill="#5A5A5A"/>
<path d="M37.2225 23.72V7.72H39.9425L40.4225 8.68H40.5825C40.9238 8.36 41.3825 8.072 41.9585 7.816C42.5345 7.53867 43.3025 7.4 44.2625 7.4C45.0732 7.4 45.7558 7.51733 46.3105 7.752C46.8865 7.96533 47.3772 8.27467 47.7825 8.68C48.2732 8.27467 48.8492 7.96533 49.5105 7.752C50.1718 7.51733 50.9825 7.4 51.9425 7.4C52.7958 7.4 53.5852 7.53867 54.3105 7.816C55.0358 8.09333 55.6225 8.60533 56.0705 9.352C56.5185 10.0773 56.7425 11.1333 56.7425 12.52V23.72H52.9025V12.52C52.9025 11.7733 52.7745 11.1973 52.5185 10.792C52.2838 10.3653 51.9852 10.0667 51.6225 9.896C51.2598 9.72533 50.8865 9.64 50.5025 9.64C50.0972 9.64 49.7345 9.69333 49.4145 9.8C49.0945 9.88533 48.8172 9.992 48.5825 10.12C48.6678 10.3547 48.7425 10.696 48.8065 11.144C48.8705 11.5707 48.9025 12.0293 48.9025 12.52V23.72H45.0625V12.52C45.0625 11.7733 44.9452 11.1973 44.7105 10.792C44.4758 10.3653 44.1772 10.0667 43.8145 9.896C43.4732 9.72533 43.1425 9.64 42.8225 9.64C42.4172 9.64 42.0652 9.704 41.7665 9.832C41.4678 9.96 41.2332 10.1093 41.0625 10.28V23.72H37.2225Z" fill="#5A5A5A"/>
<path d="M63.95 24.04C62.5633 24.04 61.39 23.7733 60.43 23.24C59.4913 22.6853 58.7767 21.8 58.286 20.584C57.7953 19.368 57.55 17.7467 57.55 15.72C57.55 13.6933 57.7953 12.072 58.286 10.856C58.7767 9.64 59.4913 8.76533 60.43 8.232C61.39 7.67733 62.5633 7.4 63.95 7.4C65.3367 7.4 66.4993 7.67733 67.438 8.232C68.398 8.76533 69.1233 9.64 69.614 10.856C70.1047 12.072 70.35 13.6933 70.35 15.72C70.35 17.7467 70.1047 19.368 69.614 20.584C69.1233 21.8 68.398 22.6853 67.438 23.24C66.4993 23.7733 65.3367 24.04 63.95 24.04ZM63.95 21.96C64.4407 21.96 64.878 21.7893 65.262 21.448C65.646 21.0853 65.9447 20.456 66.158 19.56C66.3927 18.6427 66.51 17.3627 66.51 15.72C66.51 14.056 66.3927 12.776 66.158 11.88C65.9447 10.984 65.646 10.3653 65.262 10.024C64.878 9.66133 64.4407 9.48 63.95 9.48C63.4807 9.48 63.0433 9.66133 62.638 10.024C62.254 10.3653 61.9447 10.984 61.71 11.88C61.4967 12.776 61.39 14.056 61.39 15.72C61.39 17.3627 61.4967 18.6427 61.71 19.56C61.9447 20.456 62.254 21.0853 62.638 21.448C63.0433 21.7893 63.4807 21.96 63.95 21.96Z" fill="#5A5A5A"/>
<path d="M75.805 30.44C75.0157 30.44 74.2477 30.3653 73.501 30.216C72.7543 30.088 72.1357 29.9493 71.645 29.8V28.2H75.165C76.3597 28.2 77.2663 27.8267 77.885 27.08C78.525 26.3547 78.845 25.0747 78.845 23.24C78.525 23.4747 78.1303 23.6667 77.661 23.816C77.1917 23.9653 76.6797 24.04 76.125 24.04C74.9517 24.04 73.9277 23.7733 73.053 23.24C72.1997 22.6853 71.5383 21.8 71.069 20.584C70.5997 19.368 70.365 17.7467 70.365 15.72C70.365 13.6933 70.621 12.072 71.133 10.856C71.645 9.64 72.413 8.76533 73.437 8.232C74.4823 7.67733 75.805 7.4 77.405 7.4C78.5357 7.4 79.4957 7.48533 80.285 7.656C81.0957 7.80533 81.8957 8.04 82.685 8.36V22.44C82.685 24.36 82.429 25.9067 81.917 27.08C81.4263 28.2533 80.669 29.1067 79.645 29.64C78.6423 30.1733 77.3623 30.44 75.805 30.44ZM77.085 21.8C77.4903 21.8 77.8423 21.736 78.141 21.608C78.461 21.4587 78.6957 21.3093 78.845 21.16V9.64H77.405C76.765 9.64 76.1997 9.81067 75.709 10.152C75.2397 10.4933 74.8663 11.112 74.589 12.008C74.333 12.8827 74.205 14.12 74.205 15.72C74.205 17.32 74.333 18.5573 74.589 19.432C74.845 20.3067 75.1863 20.9253 75.613 21.288C76.061 21.6293 76.5517 21.8 77.085 21.8Z" fill="#5A5A5A"/>
<path d="M88.4525 24.04C87.5565 24.04 86.7245 23.9013 85.9565 23.624C85.2098 23.3467 84.6125 22.8453 84.1645 22.12C83.7165 21.3733 83.4925 20.3067 83.4925 18.92C83.4925 17.5333 83.7165 16.4773 84.1645 15.752C84.6338 15.0053 85.2632 14.4933 86.0525 14.216C86.8632 13.9387 87.7698 13.8 88.7725 13.8C89.2632 13.8 89.7325 13.832 90.1805 13.896C90.6498 13.96 91.0872 14.0347 91.4925 14.12V12.84C91.4925 11.56 91.1938 10.7067 90.5965 10.28C89.9992 9.85333 89.1778 9.64 88.1325 9.64H84.9325V8.04C85.4232 7.86933 86.0205 7.72 86.7245 7.592C87.4498 7.464 88.1325 7.4 88.7725 7.4C90.2232 7.4 91.4285 7.54933 92.3885 7.848C93.3698 8.12533 94.1058 8.65867 94.5965 9.448C95.0872 10.216 95.3325 11.3467 95.3325 12.84V23.72H92.6125L92.1325 22.76H91.9725C91.6312 23.08 91.1725 23.3787 90.5965 23.656C90.0418 23.912 89.3272 24.04 88.4525 24.04ZM89.7325 21.8C90.1378 21.8 90.4898 21.736 90.7885 21.608C91.1085 21.4587 91.3432 21.3093 91.4925 21.16V16.04H89.7325C89.3698 16.04 88.9965 16.1253 88.6125 16.296C88.2498 16.4667 87.9405 16.7653 87.6845 17.192C87.4498 17.5973 87.3325 18.1733 87.3325 18.92C87.3325 19.6667 87.4498 20.2533 87.6845 20.68C87.9405 21.0853 88.2498 21.3733 88.6125 21.544C88.9965 21.7147 89.3698 21.8 89.7325 21.8Z" fill="#5A5A5A"/>
<path d="M102.2 24.04C101.304 24.04 100.472 23.9013 99.704 23.624C98.9573 23.3253 98.36 22.792 97.912 22.024C97.464 21.2347 97.24 20.0933 97.24 18.6V10.44H95.48V8.04H97.24V4.2H101.08V8.04H105.4V9.8C104.931 9.94933 104.323 10.0987 103.576 10.248C102.829 10.376 102.051 10.44 101.24 10.44H101.08V18.6C101.08 19.4533 101.187 20.1147 101.4 20.584C101.613 21.032 101.88 21.352 102.2 21.544C102.52 21.7147 102.84 21.8 103.16 21.8H106.04V23.4C105.784 23.5067 105.432 23.6133 104.984 23.72C104.536 23.8053 104.067 23.88 103.576 23.944C103.085 24.008 102.627 24.04 102.2 24.04Z" fill="#5A5A5A"/>
<path d="M112.135 24.04C110.492 24.04 109.138 23.7733 108.071 23.24C107.004 22.6853 106.215 21.8 105.703 20.584C105.191 19.368 104.935 17.7467 104.935 15.72C104.935 13.6933 105.17 12.072 105.639 10.856C106.13 9.64 106.823 8.76533 107.719 8.232C108.636 7.67733 109.735 7.4 111.015 7.4C112.295 7.4 113.383 7.67733 114.279 8.232C115.196 8.76533 115.89 9.64 116.359 10.856C116.85 12.072 117.095 13.6933 117.095 15.72V16.84H108.775C108.775 18.6747 109.095 19.9653 109.735 20.712C110.396 21.4373 111.41 21.8 112.775 21.8H116.295V23.4C115.826 23.5493 115.218 23.688 114.471 23.816C113.724 23.9653 112.946 24.04 112.135 24.04ZM108.775 14.6H113.255C113.255 13.2133 113.159 12.1573 112.967 11.432C112.775 10.6853 112.508 10.1733 112.167 9.896C111.826 9.61867 111.442 9.48 111.015 9.48C110.588 9.48 110.204 9.61867 109.863 9.896C109.522 10.1733 109.255 10.6853 109.063 11.432C108.871 12.1573 108.775 13.2133 108.775 14.6Z" fill="#5A5A5A"/>
</svg>
