<svg width="160" height="31" viewBox="0 0 160 31" fill="none" xmlns="http://www.w3.org/2000/svg">
<path d="M24.5857 24.7558C23.9898 24.7558 23.5332 24.5876 23.216 24.2512C22.8988 23.9148 22.7402 23.4486 22.7402 22.8527V6.07002C22.7402 5.45485 22.9036 4.98867 23.2304 4.67147C23.5573 4.35427 24.0186 4.19567 24.6146 4.19567H31.5641C33.7941 4.19567 35.5146 4.75317 36.7258 5.86817C37.9369 6.98316 38.5424 8.54032 38.5424 10.5396C38.5424 12.5389 37.9369 14.1009 36.7258 15.2255C35.5146 16.3501 33.7941 16.9124 31.5641 16.9124H26.4313V22.8527C26.4313 23.4486 26.2775 23.9148 25.9699 24.2512C25.6623 24.5876 25.2009 24.7558 24.5857 24.7558ZM26.4313 14H30.9874C32.2946 14 33.2846 13.7068 33.9575 13.1205C34.6303 12.5341 34.9668 11.6738 34.9668 10.5396C34.9668 9.4054 34.6303 8.54993 33.9575 7.97321C33.2846 7.39648 32.2946 7.10812 30.9874 7.10812H26.4313V14Z" fill="#353535"/>
<path d="M41.8299 24.7558C41.2339 24.7558 40.7774 24.5972 40.4602 24.28C40.143 23.9628 39.9844 23.5062 39.9844 22.9103V12.0102C39.9844 11.4143 40.1382 10.9625 40.4458 10.6549C40.7533 10.3473 41.1859 10.1935 41.7434 10.1935C42.3009 10.1935 42.7334 10.3473 43.041 10.6549C43.3486 10.9625 43.5024 11.4143 43.5024 12.0102V13.8269H43.214C43.4832 12.6734 44.0118 11.7987 44.8 11.2028C45.5882 10.6068 46.6359 10.2512 47.9431 10.1359C48.3469 10.0974 48.6689 10.1983 48.9092 10.4386C49.1495 10.6789 49.2888 11.049 49.3273 11.5488C49.3657 12.0294 49.2552 12.4187 48.9957 12.7167C48.7361 13.0147 48.3469 13.1925 47.8278 13.2502L47.1934 13.3078C46.0207 13.4232 45.1364 13.7836 44.5405 14.3892C43.9445 14.9947 43.6466 15.8454 43.6466 16.9412V22.9103C43.6466 23.5062 43.4928 23.9628 43.1852 24.28C42.8776 24.5972 42.4258 24.7558 41.8299 24.7558Z" fill="#353535"/>
<path d="M56.5645 24.8134C55.1035 24.8134 53.8347 24.5155 52.7581 23.9195C51.6816 23.3236 50.8453 22.4729 50.2494 21.3675C49.6534 20.2621 49.3555 18.9597 49.3555 17.4602C49.3555 16.326 49.5237 15.3119 49.8601 14.418C50.1965 13.5241 50.6819 12.7551 51.3163 12.1111C51.9507 11.4671 52.7101 10.9769 53.5944 10.6405C54.4787 10.304 55.4687 10.1358 56.5645 10.1358C58.0255 10.1358 59.2943 10.4338 60.3709 11.0298C61.4474 11.6257 62.2837 12.4716 62.8796 13.5673C63.4756 14.6631 63.7735 15.9607 63.7735 17.4602C63.7735 18.5944 63.6053 19.6133 63.2689 20.5168C62.9325 21.4204 62.4471 22.1942 61.8127 22.8382C61.1783 23.4822 60.4189 23.9724 59.5346 24.3088C58.6503 24.6452 57.6603 24.8134 56.5645 24.8134ZM56.5645 22.074C57.2758 22.074 57.9006 21.901 58.4389 21.555C58.9771 21.2089 59.3953 20.6947 59.6932 20.0122C59.9912 19.3298 60.1402 18.4791 60.1402 17.4602C60.1402 15.9223 59.8134 14.7737 59.1598 14.0143C58.5061 13.2549 57.6411 12.8753 56.5645 12.8753C55.8532 12.8753 55.2284 13.0435 54.6902 13.3799C54.1519 13.7163 53.7338 14.2258 53.4358 14.9082C53.1378 15.5907 52.9888 16.4413 52.9888 17.4602C52.9888 18.9789 53.3156 20.1276 53.9693 20.9061C54.6229 21.6847 55.488 22.074 56.5645 22.074Z" fill="#353535"/>
<path d="M67.6667 24.7558C67.09 24.7558 66.6479 24.5972 66.3403 24.28C66.0327 23.9628 65.8789 23.5062 65.8789 22.9102V12.0102C65.8789 11.4142 66.0327 10.9625 66.3403 10.6549C66.6479 10.3473 67.0804 10.1935 67.6379 10.1935C68.1954 10.1935 68.628 10.3473 68.9355 10.6549C69.2431 10.9625 69.3969 11.4142 69.3969 12.0102V14.1152L69.0797 13.2501C69.4642 12.2889 70.0601 11.5296 70.8676 10.9721C71.675 10.4146 72.6362 10.1358 73.7512 10.1358C74.8662 10.1358 75.8178 10.405 76.5483 10.9433C77.2788 11.4815 77.7882 12.3082 78.0766 13.4232H77.6729C78.0574 12.4043 78.6918 11.6017 79.5761 11.0153C80.4604 10.429 81.4793 10.1358 82.6327 10.1358C83.7093 10.1358 84.5984 10.3473 85.3 10.7702C86.0017 11.1932 86.5256 11.8324 86.8716 12.6878C87.2177 13.5433 87.3907 14.6247 87.3907 15.9319V22.9102C87.3907 23.5062 87.2321 23.9628 86.9149 24.28C86.5977 24.5972 86.1507 24.7558 85.574 24.7558C84.9973 24.7558 84.5551 24.5972 84.2475 24.28C83.9399 23.9628 83.7862 23.5062 83.7862 22.9102V16.0761C83.7862 14.9995 83.6083 14.2113 83.2527 13.7115C82.897 13.2117 82.2963 12.9618 81.4504 12.9618C80.5084 12.9618 79.7683 13.2934 79.23 13.9566C78.6918 14.6199 78.4226 15.5378 78.4226 16.7105V22.9102C78.4226 23.5062 78.2688 23.9628 77.9612 24.28C77.6537 24.5972 77.2115 24.7558 76.6348 24.7558C76.0581 24.7558 75.6111 24.5972 75.2939 24.28C74.9767 23.9628 74.8181 23.5062 74.8181 22.9102V16.0761C74.8181 14.9995 74.6403 14.2113 74.2846 13.7115C73.929 13.2117 73.3379 12.9618 72.5112 12.9618C71.5692 12.9618 70.8291 13.2934 70.2908 13.9566C69.7526 14.6199 69.4834 15.5378 69.4834 16.7105V22.9102C69.4834 24.1406 68.8779 24.7558 67.6667 24.7558Z" fill="#353535"/>
<path d="M96.617 24.8134C95.156 24.8134 93.8872 24.5155 92.8106 23.9195C91.7341 23.3236 90.8978 22.4729 90.3019 21.3675C89.7059 20.2621 89.408 18.9597 89.408 17.4602C89.408 16.326 89.5762 15.3119 89.9126 14.418C90.249 13.5241 90.7344 12.7551 91.3688 12.1111C92.0032 11.4671 92.7626 10.9769 93.6469 10.6405C94.5312 10.304 95.5212 10.1358 96.617 10.1358C98.078 10.1358 99.3468 10.4338 100.423 11.0298C101.5 11.6257 102.336 12.4716 102.932 13.5673C103.528 14.6631 103.826 15.9607 103.826 17.4602C103.826 18.5944 103.658 19.6133 103.321 20.5168C102.985 21.4204 102.5 22.1942 101.865 22.8382C101.231 23.4822 100.471 23.9724 99.5871 24.3088C98.7028 24.6452 97.7128 24.8134 96.617 24.8134ZM96.617 22.074C97.3283 22.074 97.9531 21.901 98.4913 21.555C99.0296 21.2089 99.4477 20.6947 99.7457 20.0122C100.044 19.3298 100.193 18.4791 100.193 17.4602C100.193 15.9223 99.8659 14.7737 99.2122 14.0143C98.5586 13.2549 97.6935 12.8753 96.617 12.8753C95.9057 12.8753 95.2809 13.0435 94.7426 13.3799C94.2044 13.7163 93.7862 14.2258 93.4883 14.9082C93.1903 15.5907 93.0413 16.4413 93.0413 17.4602C93.0413 18.9789 93.3681 20.1276 94.0217 20.9061C94.6754 21.6847 95.5404 22.074 96.617 22.074Z" fill="#353535"/>
<path d="M112.449 30.0039C111.411 30.0039 110.406 29.9078 109.435 29.7156C108.464 29.5233 107.585 29.2254 106.797 28.8217C106.432 28.6294 106.186 28.3987 106.061 28.1296C105.937 27.8605 105.898 27.5865 105.946 27.3078C105.994 27.029 106.11 26.7839 106.292 26.5724C106.475 26.361 106.701 26.2168 106.97 26.1399C107.239 26.063 107.518 26.1014 107.806 26.2552C108.652 26.6782 109.455 26.9521 110.214 27.0771C110.973 27.202 111.622 27.2645 112.16 27.2645C113.448 27.2645 114.414 26.9521 115.058 26.3273C115.702 25.7025 116.024 24.775 116.024 23.5446V20.9494H116.284C115.996 21.9298 115.395 22.7132 114.482 23.2995C113.568 23.8859 112.535 24.179 111.382 24.179C110.113 24.179 109.008 23.8859 108.066 23.2995C107.124 22.7132 106.393 21.8914 105.874 20.834C105.355 19.7767 105.095 18.5464 105.095 17.143C105.095 16.0857 105.244 15.1293 105.542 14.2738C105.84 13.4184 106.263 12.683 106.811 12.0679C107.359 11.4527 108.022 10.9769 108.801 10.6405C109.579 10.304 110.44 10.1358 111.382 10.1358C112.574 10.1358 113.617 10.429 114.51 11.0153C115.404 11.6017 115.986 12.3754 116.255 13.3367L115.967 14.0576V12.0102C115.967 11.4142 116.125 10.9625 116.442 10.6549C116.76 10.3473 117.197 10.1935 117.755 10.1935C118.312 10.1935 118.773 10.3473 119.081 10.6549C119.389 10.9625 119.542 11.4142 119.542 12.0102V23.1121C119.542 25.3998 118.937 27.1203 117.726 28.2738C116.515 29.4272 114.756 30.0039 112.449 30.0039ZM112.362 21.4396C113.112 21.4396 113.756 21.2666 114.294 20.9206C114.832 20.5745 115.251 20.0795 115.549 19.4355C115.847 18.7915 115.996 18.0273 115.996 17.143C115.996 15.8166 115.669 14.7737 115.015 14.0143C114.361 13.2549 113.477 12.8753 112.362 12.8753C111.612 12.8753 110.968 13.0483 110.43 13.3943C109.892 13.7404 109.474 14.2306 109.176 14.865C108.878 15.4994 108.729 16.2587 108.729 17.143C108.729 18.4695 109.056 19.5172 109.709 20.2862C110.363 21.0551 111.247 21.4396 112.362 21.4396Z" fill="#353535"/>
<path d="M127.011 24.8134C125.992 24.8134 125.084 24.6164 124.286 24.2223C123.488 23.8282 122.864 23.2947 122.412 22.6219C121.96 21.949 121.734 21.1897 121.734 20.3438C121.734 19.3057 122.003 18.4839 122.542 17.8783C123.08 17.2728 123.955 16.8354 125.166 16.5663C126.377 16.2972 128.001 16.1626 130.039 16.1626H131.481V18.2388H130.068C128.876 18.2388 127.924 18.2965 127.213 18.4118C126.502 18.5272 125.997 18.7242 125.699 19.003C125.401 19.2817 125.252 19.671 125.252 20.1708C125.252 20.8052 125.473 21.3243 125.915 21.728C126.358 22.1317 126.973 22.3335 127.761 22.3335C128.395 22.3335 128.958 22.1845 129.448 21.8866C129.938 21.5886 130.327 21.1801 130.616 20.661C130.904 20.142 131.048 19.546 131.048 18.8732V15.557C131.048 14.5958 130.837 13.9038 130.414 13.4808C129.991 13.0579 129.28 12.8464 128.28 12.8464C127.722 12.8464 127.122 12.9137 126.478 13.0483C125.834 13.1829 125.156 13.4135 124.445 13.7404C124.079 13.9134 123.757 13.9614 123.479 13.8845C123.2 13.8076 122.984 13.649 122.83 13.4087C122.676 13.1684 122.599 12.9041 122.599 12.6157C122.599 12.3274 122.676 12.0438 122.83 11.7651C122.984 11.4863 123.243 11.2797 123.608 11.1451C124.493 10.7798 125.343 10.5203 126.16 10.3665C126.978 10.2127 127.722 10.1358 128.395 10.1358C129.779 10.1358 130.918 10.3473 131.812 10.7702C132.706 11.1932 133.374 11.8324 133.816 12.6878C134.259 13.5433 134.48 14.6439 134.48 15.9896V22.9102C134.48 23.5062 134.336 23.9628 134.047 24.28C133.759 24.5972 133.345 24.7558 132.807 24.7558C132.269 24.7558 131.851 24.5972 131.553 24.28C131.255 23.9628 131.106 23.5062 131.106 22.9102V21.5261H131.337C131.202 22.199 130.938 22.7805 130.544 23.2707C130.149 23.7609 129.654 24.1406 129.059 24.4097C128.463 24.6789 127.78 24.8134 127.011 24.8134Z" fill="#353535"/>
<path d="M143.678 24.8135C142.428 24.8135 141.385 24.602 140.549 24.1791C139.713 23.7562 139.093 23.1362 138.689 22.3192C138.285 21.5021 138.084 20.4881 138.084 19.277V13.1349H136.584C136.123 13.1349 135.767 13.0147 135.517 12.7744C135.267 12.5341 135.142 12.2025 135.142 11.7796C135.142 11.3566 135.267 11.001 135.517 10.7703C135.767 10.5396 136.123 10.4243 136.584 10.4243H138.084V7.80018C138.084 7.20423 138.242 6.75247 138.559 6.44488C138.877 6.13729 139.324 5.9835 139.9 5.9835C140.477 5.9835 140.919 6.13729 141.227 6.44488C141.534 6.75247 141.688 7.20423 141.688 7.80018V10.4243H144.745C145.206 10.4243 145.562 10.5396 145.812 10.7703C146.062 11.001 146.187 11.3374 146.187 11.7796C146.187 12.2217 146.062 12.5341 145.812 12.7744C145.562 13.0147 145.206 13.1349 144.745 13.1349H141.688V19.0751C141.688 19.9979 141.89 20.6899 142.294 21.1513C142.697 21.6127 143.351 21.8434 144.255 21.8434C144.581 21.8434 144.87 21.8145 145.12 21.7569C145.37 21.6992 145.591 21.6607 145.783 21.6415C146.014 21.6223 146.206 21.6944 146.36 21.8578C146.513 22.0212 146.59 22.3528 146.59 22.8526C146.59 23.2371 146.528 23.5784 146.403 23.8763C146.278 24.1743 146.052 24.381 145.725 24.4963C145.475 24.5732 145.148 24.6453 144.745 24.7126C144.341 24.7799 143.985 24.8135 143.678 24.8135Z" fill="#353535"/>
<path d="M154.175 24.8134C152.58 24.8134 151.205 24.5155 150.052 23.9195C148.898 23.3236 148.009 22.4777 147.384 21.3819C146.759 20.2862 146.447 18.9885 146.447 17.4891C146.447 15.9896 146.75 14.7496 147.355 13.6538C147.961 12.5581 148.797 11.6978 149.864 11.073C150.931 10.4482 152.147 10.1358 153.512 10.1358C154.512 10.1358 155.41 10.2992 156.208 10.6261C157.006 10.9529 157.688 11.4239 158.255 12.039C158.823 12.6542 159.255 13.3991 159.553 14.2738C159.851 15.1485 160 16.1338 160 17.2295C160 17.5756 159.88 17.8399 159.64 18.0225C159.399 18.2052 159.058 18.2965 158.616 18.2965H149.359V16.2203H157.462L157.001 16.6528C157.001 15.7685 156.871 15.0284 156.612 14.4324C156.352 13.8365 155.977 13.3799 155.487 13.0627C154.997 12.7455 154.387 12.5869 153.656 12.5869C152.849 12.5869 152.161 12.7743 151.594 13.1492C151.027 13.5241 150.595 14.0527 150.297 14.7352C149.999 15.4177 149.85 16.2299 149.85 17.1719V17.3737C149.85 18.9501 150.22 20.1276 150.96 20.9061C151.7 21.6847 152.791 22.074 154.233 22.074C154.733 22.074 155.295 22.0115 155.92 21.8866C156.544 21.7616 157.136 21.5453 157.693 21.2378C158.097 21.0071 158.452 20.9061 158.76 20.935C159.068 20.9638 159.313 21.0743 159.495 21.2666C159.678 21.4588 159.789 21.6943 159.827 21.9731C159.865 22.2518 159.813 22.5354 159.668 22.8237C159.524 23.1121 159.279 23.362 158.933 23.5735C158.26 23.9964 157.486 24.3088 156.612 24.5107C155.737 24.7125 154.925 24.8134 154.175 24.8134Z" fill="#353535"/>
<path d="M16.962 5.6327L12.1944 1.70378C11.4254 1.06938 10.4042 0.720943 9.31799 0.720943C8.23183 0.720943 7.21055 1.06938 6.44158 1.70378L5.6582 2.35019C6.01625 2.14593 6.39833 2.00415 6.79483 1.93927C7.4124 1.83594 8.00114 1.93446 8.50577 2.21802C8.76289 2.14112 9.03684 2.10027 9.31799 2.10027C9.95959 2.10027 10.5603 2.30693 11.0145 2.6794L15.7845 6.61072C16.2387 6.98319 16.4862 7.48062 16.4862 8.00928V23.0858C16.4862 24.1767 15.4096 25.0635 14.088 25.0635H13.5905V25.7051C13.5905 25.9622 13.5689 26.2073 13.5257 26.438H14.088C16.3324 26.438 18.1563 24.9337 18.1563 23.0858V8.00447C18.1563 7.10815 17.7333 6.26709 16.9644 5.6327H16.962Z" fill="#5528FF"/>
<path d="M6.79395 6.99281C6.62333 7.00723 6.46233 7.09134 6.33978 7.22831C6.08987 7.51186 6.08987 7.942 6.33978 8.19192C6.45993 8.31447 6.62333 8.37455 6.79395 8.36493C6.96456 8.35532 7.12556 8.27362 7.24812 8.13665C7.36827 7.99968 7.43555 7.81945 7.43555 7.63442C7.43555 7.44939 7.36827 7.28118 7.24812 7.15862C7.12797 7.03847 6.96456 6.9784 6.79395 6.99281Z" fill="#5528FF"/>
<path d="M12.6735 6.35126L9.00649 2.58574C8.8527 2.43915 8.68448 2.3166 8.50426 2.21567C7.99963 1.93212 7.41089 1.8336 6.79331 1.93692C6.39682 2.00181 6.01474 2.14599 5.65669 2.34784L4.6306 3.1937C4.61378 3.21052 4.59696 3.22734 4.58254 3.24657L0.915547 7.31967C0.752143 7.48788 0.610365 7.67051 0.487811 7.86275C0.170614 8.35777 0 8.91527 0 9.48478V22.7614C0 24.3907 1.40336 26.0992 3.12872 26.5702L10.4627 28.5767C11.9718 28.99 13.2358 28.0529 13.5266 26.4332C13.5674 26.2025 13.5914 25.9574 13.5914 25.7003V8.91527C13.5914 7.91802 13.267 7.00488 12.6759 6.35126H12.6735ZM8.00443 8.04538C7.94195 8.24964 7.84343 8.44188 7.70165 8.60288C7.45895 8.87682 7.13695 9.03542 6.79331 9.05224C6.44968 9.06666 6.12768 8.9417 5.88498 8.6966C5.38515 8.19917 5.38515 7.35091 5.88498 6.7862C6.12768 6.50986 6.44968 6.33924 6.79331 6.308C7.13695 6.27676 7.45895 6.39211 7.70165 6.63241C7.70886 6.63962 7.71367 6.64923 7.72088 6.65644C7.94916 6.89914 8.07652 7.22836 8.07652 7.59121C8.07652 7.74741 8.04769 7.8988 8.00443 8.04538ZM11.1067 17.3282C10.6429 17.7343 9.8932 17.7343 9.43182 17.3282C9.06176 17.0038 8.99207 16.5184 9.21555 16.1267C9.27082 16.0282 9.34051 15.9369 9.43182 15.8552C9.83312 15.5019 10.4507 15.4563 10.9097 15.7158C10.9794 15.7542 11.0466 15.7999 11.1067 15.8552C11.5705 16.2613 11.5705 16.9197 11.1067 17.3282Z" fill="#5528FF"/>
<path d="M7.72054 6.65406C7.72054 6.65406 7.70852 6.63723 7.70131 6.63003C7.45861 6.38732 7.1366 6.27438 6.79297 6.30562C6.44934 6.33686 6.12734 6.50747 5.88464 6.78382C5.38481 7.34853 5.38481 8.19679 5.88464 8.69421C6.12734 8.93692 6.44934 9.06428 6.79297 9.04986C7.1366 9.03544 7.45861 8.87684 7.70131 8.60049C7.84309 8.43949 7.94161 8.24725 8.00409 8.043C8.04975 7.89641 8.07618 7.74502 8.07618 7.58883C8.07618 7.22597 7.94882 6.89436 7.72054 6.65406ZM7.24714 8.13431C7.12699 8.27128 6.96599 8.35298 6.79297 8.3626C6.62236 8.37221 6.46136 8.30973 6.3388 8.18958C6.08889 7.93967 6.08889 7.50953 6.3388 7.22597C6.45895 7.089 6.62236 7.0049 6.79297 6.99048C6.96359 6.97606 7.12459 7.03613 7.24714 7.15628C7.36729 7.27884 7.43458 7.44705 7.43458 7.63208C7.43458 7.81711 7.36729 7.99494 7.24714 8.13431Z" fill="white"/>
<path d="M11.1093 15.8528C11.0492 15.7999 10.9819 15.7543 10.9122 15.7134C10.4533 15.4539 9.83569 15.4995 9.43439 15.8528C9.34307 15.9345 9.27338 16.0282 9.21812 16.1243C8.99704 16.5136 9.06432 16.999 9.43439 17.3258C9.89817 17.7319 10.6479 17.7319 11.1093 17.3258C11.5707 16.9197 11.5731 16.2613 11.1093 15.8528Z" fill="white"/>
<path d="M16.962 5.39235L12.1944 1.46342C11.4254 0.829028 10.4042 0.480591 9.31799 0.480591C8.23183 0.480591 7.21055 0.829028 6.44158 1.46342L5.6582 2.10983C6.01625 1.90558 6.39833 1.7638 6.79483 1.69892C7.4124 1.59559 8.00114 1.69411 8.50577 1.97767C8.76289 1.90077 9.03684 1.85992 9.31799 1.85992C9.95959 1.85992 10.5603 2.06658 11.0145 2.43905L15.7845 6.37037C16.2387 6.74284 16.4862 7.24026 16.4862 7.76893V22.8454C16.4862 23.9364 15.4096 24.8231 14.088 24.8231H13.5905V25.4647C13.5905 25.7218 13.5689 25.9669 13.5257 26.1976H14.088C16.3324 26.1976 18.1563 24.6933 18.1563 22.8454V7.76412C18.1563 6.8678 17.7333 6.02674 16.9644 5.39235H16.962Z" fill="#5528FF"/>
<path d="M6.79395 6.75246C6.62333 6.76688 6.46233 6.85098 6.33978 6.98796C6.08987 7.27151 6.08987 7.70165 6.33978 7.95156C6.45993 8.07412 6.62333 8.13419 6.79395 8.12458C6.96456 8.11497 7.12556 8.03327 7.24812 7.89629C7.36827 7.75932 7.43555 7.5791 7.43555 7.39407C7.43555 7.20903 7.36827 7.04082 7.24812 6.91827C7.12797 6.79812 6.96456 6.73804 6.79395 6.75246Z" fill="#5528FF"/>
<path d="M12.6735 6.1109L9.00649 2.34538C8.8527 2.1988 8.68448 2.07625 8.50426 1.97532C7.99963 1.69176 7.41089 1.59324 6.79331 1.69657C6.39682 1.76145 6.01474 1.90563 5.65669 2.10749L4.6306 2.95335C4.61378 2.97017 4.59696 2.98699 4.58254 3.00621L0.915547 7.07932C0.752143 7.24753 0.610365 7.43016 0.487811 7.6224C0.170614 8.11742 0 8.67492 0 9.24443V22.5211C0 24.1503 1.40336 25.8589 3.12872 26.3298L10.4627 28.3364C11.9718 28.7497 13.2358 27.8125 13.5266 26.1929C13.5674 25.9622 13.5914 25.7171 13.5914 25.46V8.67492C13.5914 7.67767 13.267 6.76452 12.6759 6.1109H12.6735ZM8.00443 7.80503C7.94195 8.00928 7.84343 8.20152 7.70165 8.36252C7.45895 8.63647 7.13695 8.79507 6.79331 8.81189C6.44968 8.82631 6.12768 8.70135 5.88498 8.45624C5.38515 7.95882 5.38515 7.11056 5.88498 6.54585C6.12768 6.2695 6.44968 6.09889 6.79331 6.06765C7.13695 6.03641 7.45895 6.15175 7.70165 6.39205C7.70886 6.39926 7.71367 6.40888 7.72088 6.41608C7.94916 6.65879 8.07652 6.988 8.07652 7.35086C8.07652 7.50705 8.04769 7.65844 8.00443 7.80503ZM11.1067 17.0879C10.6429 17.494 9.8932 17.494 9.43182 17.0879C9.06176 16.7635 8.99207 16.278 9.21555 15.8864C9.27082 15.7878 9.34051 15.6965 9.43182 15.6148C9.83312 15.2616 10.4507 15.2159 10.9097 15.4754C10.9794 15.5139 11.0466 15.5595 11.1067 15.6148C11.5705 16.0209 11.5705 16.6793 11.1067 17.0879Z" fill="#5528FF"/>
<path d="M7.72054 6.4137C7.72054 6.4137 7.70852 6.39688 7.70131 6.38967C7.45861 6.14697 7.1366 6.03402 6.79297 6.06526C6.44934 6.0965 6.12734 6.26712 5.88464 6.54346C5.38481 7.10817 5.38481 7.95643 5.88464 8.45386C6.12734 8.69656 6.44934 8.82392 6.79297 8.8095C7.1366 8.79509 7.45861 8.63649 7.70131 8.36014C7.84309 8.19914 7.94161 8.0069 8.00409 7.80264C8.04975 7.65606 8.07618 7.50467 8.07618 7.34847C8.07618 6.98562 7.94882 6.654 7.72054 6.4137ZM7.24714 7.89396C7.12699 8.03093 6.96599 8.11263 6.79297 8.12224C6.62236 8.13185 6.46136 8.06938 6.3388 7.94923C6.08889 7.69931 6.08889 7.26917 6.3388 6.98562C6.45895 6.84865 6.62236 6.76454 6.79297 6.75012C6.96359 6.7357 7.12459 6.79578 7.24714 6.91593C7.36729 7.03848 7.43458 7.20669 7.43458 7.39173C7.43458 7.57676 7.36729 7.75458 7.24714 7.89396Z" fill="white"/>
<path d="M11.1093 15.6123C11.0492 15.5594 10.9819 15.5138 10.9122 15.4729C10.4533 15.2134 9.83569 15.2591 9.43439 15.6123C9.34307 15.694 9.27338 15.7877 9.21812 15.8838C8.99704 16.2731 9.06432 16.7585 9.43439 17.0854C9.89817 17.4915 10.6479 17.4915 11.1093 17.0854C11.5707 16.6792 11.5731 16.0208 11.1093 15.6123Z" fill="white"/>
<path d="M16.962 5.15211L12.1944 1.22319C11.4254 0.588793 10.4042 0.240356 9.31799 0.240356C8.23183 0.240356 7.21055 0.588793 6.44158 1.22319L5.6582 1.8696C6.01625 1.66534 6.39833 1.52356 6.79483 1.45868C7.4124 1.35535 8.00114 1.45388 8.50577 1.73743C8.76289 1.66054 9.03684 1.61969 9.31799 1.61969C9.95959 1.61969 10.5603 1.82634 11.0145 2.19881L15.7845 6.13014C16.2387 6.5026 16.4862 7.00003 16.4862 7.52869V22.6052C16.4862 23.6962 15.4096 24.5829 14.088 24.5829H13.5905V25.2245C13.5905 25.4816 13.5689 25.7267 13.5257 25.9574H14.088C16.3324 25.9574 18.1563 24.4531 18.1563 22.6052V7.52388C18.1563 6.62756 17.7333 5.78651 16.9644 5.15211H16.962Z" fill="#5528FF"/>
<path d="M6.79395 6.51223C6.62333 6.52664 6.46233 6.61075 6.33978 6.74772C6.08987 7.03128 6.08987 7.46142 6.33978 7.71133C6.45993 7.83388 6.62333 7.89396 6.79395 7.88435C6.96456 7.87473 7.12556 7.79303 7.24812 7.65606C7.36827 7.51909 7.43555 7.33886 7.43555 7.15383C7.43555 6.9688 7.36827 6.80059 7.24812 6.67803C7.12797 6.55788 6.96456 6.49781 6.79395 6.51223Z" fill="#5528FF"/>
<path d="M12.6735 5.87067L9.00649 2.10515C8.8527 1.95857 8.68448 1.83601 8.50426 1.73509C7.99963 1.45153 7.41089 1.35301 6.79331 1.45634C6.39682 1.52122 6.01474 1.6654 5.65669 1.86725L4.6306 2.71311C4.61378 2.72993 4.59696 2.74676 4.58254 2.76598L0.915547 6.83908C0.752143 7.00729 0.610365 7.18992 0.487811 7.38216C0.170614 7.87718 0 8.43468 0 9.0042V22.2808C0 23.9101 1.40336 25.6186 3.12872 26.0896L10.4627 28.0961C11.9718 28.5094 13.2358 27.5723 13.5266 25.9526C13.5674 25.7219 13.5914 25.4768 13.5914 25.2197V8.43468C13.5914 7.43743 13.267 6.52429 12.6759 5.87067H12.6735ZM8.00443 7.56479C7.94195 7.76905 7.84343 7.96129 7.70165 8.12229C7.45895 8.39624 7.13695 8.55483 6.79331 8.57165C6.44968 8.58607 6.12768 8.46112 5.88498 8.21601C5.38515 7.71859 5.38515 6.87032 5.88498 6.30562C6.12768 6.02927 6.44968 5.85866 6.79331 5.82742C7.13695 5.79618 7.45895 5.91152 7.70165 6.15182C7.70886 6.15903 7.71367 6.16864 7.72088 6.17585C7.94916 6.41856 8.07652 6.74777 8.07652 7.11062C8.07652 7.26682 8.04769 7.41821 8.00443 7.56479ZM11.1067 16.8476C10.6429 17.2537 9.8932 17.2537 9.43182 16.8476C9.06176 16.5232 8.99207 16.0378 9.21555 15.6461C9.27082 15.5476 9.34051 15.4563 9.43182 15.3746C9.83312 15.0213 10.4507 14.9757 10.9097 15.2352C10.9794 15.2737 11.0466 15.3193 11.1067 15.3746C11.5705 15.7807 11.5705 16.4391 11.1067 16.8476Z" fill="#5528FF"/>
<path d="M7.72054 6.17335C7.72054 6.17335 7.70852 6.15653 7.70131 6.14932C7.45861 5.90661 7.1366 5.79367 6.79297 5.82491C6.44934 5.85615 6.12734 6.02676 5.88464 6.30311C5.38481 6.86782 5.38481 7.71608 5.88464 8.2135C6.12734 8.45621 6.44934 8.58357 6.79297 8.56915C7.1366 8.55473 7.45861 8.39613 7.70131 8.11979C7.84309 7.95878 7.94161 7.76654 8.00409 7.56229C8.04975 7.4157 8.07618 7.26431 8.07618 7.10812C8.07618 6.74526 7.94882 6.41365 7.72054 6.17335ZM7.24714 7.6536C7.12699 7.79057 6.96599 7.87228 6.79297 7.88189C6.62236 7.8915 6.46136 7.82902 6.3388 7.70887C6.08889 7.45896 6.08889 7.02882 6.3388 6.74526C6.45895 6.60829 6.62236 6.52419 6.79297 6.50977C6.96359 6.49535 7.12459 6.55543 7.24714 6.67558C7.36729 6.79813 7.43458 6.96634 7.43458 7.15137C7.43458 7.3364 7.36729 7.51423 7.24714 7.6536Z" fill="white"/>
<path d="M11.1093 15.3721C11.0492 15.3192 10.9819 15.2735 10.9122 15.2327C10.4533 14.9732 9.83569 15.0188 9.43439 15.3721C9.34307 15.4538 9.27338 15.5475 9.21812 15.6436C8.99704 16.0329 9.06432 16.5183 9.43439 16.8451C9.89817 17.2512 10.6479 17.2512 11.1093 16.8451C11.5707 16.439 11.5731 15.7806 11.1093 15.3721Z" fill="white"/>
<path d="M16.962 4.91176L12.1944 0.982832C11.4254 0.348437 10.4042 0 9.31799 0C8.23183 0 7.21055 0.348437 6.44158 0.982832L5.6582 1.62924C6.01625 1.42499 6.39833 1.28321 6.79483 1.21833C7.4124 1.115 8.00114 1.21352 8.50577 1.49708C8.76289 1.42018 9.03684 1.37933 9.31799 1.37933C9.95959 1.37933 10.5603 1.58599 11.0145 1.95845L15.7845 5.88978C16.2387 6.26225 16.4862 6.75967 16.4862 7.28833V22.3648C16.4862 23.4558 15.4096 24.3425 14.088 24.3425H13.5905V24.9841C13.5905 25.2412 13.5689 25.4863 13.5257 25.717H14.088C16.3324 25.717 18.1563 24.2127 18.1563 22.3648V7.28353C18.1563 6.3872 17.7333 5.54615 16.9644 4.91176H16.962Z" fill="#5528FF"/>
<path d="M6.79395 6.27187C6.62333 6.28629 6.46233 6.37039 6.33978 6.50737C6.08987 6.79092 6.08987 7.22106 6.33978 7.47097C6.45993 7.59353 6.62333 7.6536 6.79395 7.64399C6.96456 7.63438 7.12556 7.55268 7.24812 7.4157C7.36827 7.27873 7.43555 7.09851 7.43555 6.91347C7.43555 6.72844 7.36827 6.56023 7.24812 6.43768C7.12797 6.31753 6.96456 6.25745 6.79395 6.27187Z" fill="#5528FF"/>
<path d="M12.6735 5.63031L9.00649 1.86479C8.8527 1.71821 8.68448 1.59566 8.50426 1.49473C7.99963 1.21118 7.41089 1.11265 6.79331 1.21598C6.39682 1.28086 6.01474 1.42504 5.65669 1.6269L4.6306 2.47276C4.61378 2.48958 4.59696 2.5064 4.58254 2.52562L0.915547 6.59873C0.752143 6.76694 0.610365 6.94957 0.487811 7.14181C0.170614 7.63683 0 8.19433 0 8.76384V22.0405C0 23.6697 1.40336 25.3783 3.12872 25.8493L10.4627 27.8558C11.9718 28.2691 13.2358 27.3319 13.5266 25.7123C13.5674 25.4816 13.5914 25.2365 13.5914 24.9794V8.19433C13.5914 7.19708 13.267 6.28393 12.6759 5.63031H12.6735ZM8.00443 7.32444C7.94195 7.52869 7.84343 7.72093 7.70165 7.88194C7.45895 8.15588 7.13695 8.31448 6.79331 8.3313C6.44968 8.34572 6.12768 8.22076 5.88498 7.97565C5.38515 7.47823 5.38515 6.62997 5.88498 6.06526C6.12768 5.78891 6.44968 5.6183 6.79331 5.58706C7.13695 5.55582 7.45895 5.67117 7.70165 5.91147C7.70886 5.91868 7.71367 5.92829 7.72088 5.9355C7.94916 6.1782 8.07652 6.50741 8.07652 6.87027C8.07652 7.02646 8.04769 7.17785 8.00443 7.32444ZM11.1067 16.6073C10.6429 17.0134 9.8932 17.0134 9.43182 16.6073C9.06176 16.2829 8.99207 15.7975 9.21555 15.4058C9.27082 15.3072 9.34051 15.2159 9.43182 15.1342C9.83312 14.781 10.4507 14.7353 10.9097 14.9949C10.9794 15.0333 11.0466 15.079 11.1067 15.1342C11.5705 15.5403 11.5705 16.1988 11.1067 16.6073Z" fill="#5528FF"/>
<path d="M7.72054 5.93299C7.72054 5.93299 7.70852 5.91617 7.70131 5.90896C7.45861 5.66626 7.1366 5.55331 6.79297 5.58455C6.44934 5.61579 6.12734 5.78641 5.88464 6.06275C5.38481 6.62746 5.38481 7.47572 5.88464 7.97315C6.12734 8.21585 6.44934 8.34321 6.79297 8.32879C7.1366 8.31437 7.45861 8.15578 7.70131 7.87943C7.84309 7.71843 7.94161 7.52619 8.00409 7.32193C8.04975 7.17535 8.07618 7.02396 8.07618 6.86776C8.07618 6.50491 7.94882 6.17329 7.72054 5.93299ZM7.24714 7.41324C7.12699 7.55022 6.96599 7.63192 6.79297 7.64153C6.62236 7.65114 6.46136 7.58866 6.3388 7.46851C6.08889 7.2186 6.08889 6.78846 6.3388 6.50491C6.45895 6.36793 6.62236 6.28383 6.79297 6.26941C6.96359 6.25499 7.12459 6.31507 7.24714 6.43522C7.36729 6.55777 7.43458 6.72598 7.43458 6.91102C7.43458 7.09605 7.36729 7.27387 7.24714 7.41324Z" fill="white"/>
<path d="M11.1093 15.1317C11.0492 15.0788 10.9819 15.0332 10.9122 14.9923C10.4533 14.7328 9.83569 14.7785 9.43439 15.1317C9.34307 15.2134 9.27338 15.3071 9.21812 15.4033C8.99704 15.7925 9.06432 16.2779 9.43439 16.6048C9.89817 17.0109 10.6479 17.0109 11.1093 16.6048C11.5707 16.1987 11.5731 15.5402 11.1093 15.1317Z" fill="white"/>
</svg>
